:SAMPLES-PER-SECOND 30
:FULLY-SPECIFIED
:DEGREES
170
root  -79.923 41.7584 7.56439 -144.682 -88.4699 141.915
RightUpLeg  2.65949 -8.33488 -6.1511
RightLeg  5.11053 -3.5294 2.8663
RightFoot  -3.16472 -0.0682968 0.728546
RightToes  -1.16417e-010 0 -3.6325e-017
Spine  2.20245 0.707224 -3.18758
Spine1  1.16551 0.106233 3.75351
HEad  15.9744 23.4458 2.44319
LeftShoulder1  1.08199 -3.25526 -8.48262
LeftArm  -15.8848 8.27399 0.135993
LeftForeArm  9.79779 -3.0014 -2.5541
LeftHand  -0.244104 0.0205437 5.32207
RightShoulder  0.240494 -0.816384 0.611543
RightArm  -25.5441 -5.66169 2.1027
RightForeArm  -8.43789 4.57109 2.14265
RightHand  -3.75817 10.8381 -26.7378
LeftUpLeg  1.04881 4.81219 2.7128
LeftLeg  3.27146 10.4129 -3.29324
LeftFoot  -1.40276 -0.173359 2.10456
LeftToes  4.18335e-011 -7.14095e-012 4.81992e-012
171
root  -79.9308 41.764 7.61063 -149.672 -88.2384 147.147
RightUpLeg  2.44497 -8.34577 -6.19248
RightLeg  4.9321 -3.31094 2.90573
RightFoot  -3.03998 -0.0676187 0.718022
RightToes  -1.16417e-010 0 -3.6325e-017
Spine  1.9023 0.708895 -3.15539
Spine1  1.65547 0.0612373 3.91806
HEad  15.5063 24.0053 1.78467
LeftShoulder1  1.19257 -3.52895 -9.55927
LeftArm  -14.7139 7.99556 0.600793
LeftForeArm  12.0618 -2.48943 -2.8919
LeftHand  -0.244104 0.0205437 5.32207
RightShoulder  0.230637 -0.910082 0.539628
RightArm  -25.1577 -5.41103 2.76079
RightForeArm  -6.77562 3.88835 2.03363
RightHand  -3.3781 9.73789 -25.8249
LeftUpLeg  0.980786 4.81973 2.67439
LeftLeg  2.95789 10.6539 -3.44154
LeftFoot  -1.36396 -0.172095 2.11473
LeftToes  4.18335e-011 -7.14095e-012 4.81992e-012
172
root  -79.9275 41.7689 7.64025 -151.157 -88.2083 148.823
RightUpLeg  2.32422 -8.32371 -6.18009
RightLeg  4.7222 -3.30291 2.93816
RightFoot  -2.92844 -0.0702536 0.758916
RightToes  -1.16417e-010 0 -3.6325e-017
Spine  1.77053 0.621353 -3.44994
Spine1  1.9858 -0.136207 4.38088
HEad  15.5619 24.2723 1.90775
LeftShoulder1  1.19871 -3.43263 -9.91452
LeftArm  -13.8915 7.9145 0.193439
LeftForeArm  13.6844 -2.22607 -3.16179
LeftHand  -0.244104 0.0205437 5.32207
RightShoulder  0.249903 -0.770473 0.829032
RightArm  -25.0306 -5.29265 2.92727
RightForeArm  -4.19164 2.63051 1.67876
RightHand  -3.06863 9.27378 -24.2743
LeftUpLeg  0.808852 4.82287 2.6536
LeftLeg  2.90293 10.7179 -3.47206
LeftFoot  -1.36487 -0.173864 2.15858
LeftToes  4.18335e-011 -7.14095e-012 4.81992e-012
173
root  -79.9133 41.7698 7.65311 -151.236 -88.2117 149.083
RightUpLeg  2.09791 -8.25481 -6.12592
RightLeg  4.71342 -3.37945 2.88862
RightFoot  -2.90355 -0.0747631 0.828902
RightToes  -1.16417e-010 0 -3.6325e-017
Spine  1.69606 0.643112 -3.6658
Spine1  2.238 -0.232761 4.91686
HEad  15.4331 24.4432 1.12383
LeftShoulder1  1.28811 -3.57508 -10.9211
LeftArm  -12.8163 7.49141 0.463575
LeftForeArm  13.5523 -1.47171 -3.58381
LeftHand  -0.244104 0.0205437 5.32207
RightShoulder  0.232875 -0.870148 0.487749
RightArm  -25.4828 -5.68188 3.49813
RightForeArm  -1.96306 1.62686 1.18501
RightHand  -2.7034 8.57431 -22.5116
LeftUpLeg  0.561133 4.78525 2.60918
LeftLeg  2.96225 10.8075 -3.44841
LeftFoot  -1.37261 -0.179767 2.25556
LeftToes  4.18335e-011 -7.14095e-012 4.81992e-012
174
root  -79.8996 41.77 7.66086 -151.887 -88.1738 149.883
RightUpLeg  1.84532 -8.19222 -6.07065
RightLeg  4.81392 -3.41833 2.82748
RightFoot  -2.92411 -0.0781497 0.88146
RightToes  -1.16417e-010 0 -3.6325e-017
Spine  1.72122 0.6995 -3.4
Spine1  2.26267 -0.13005 4.67308
HEad  15.4984 24.3315 0.289454
LeftShoulder1  1.42134 -4.11023 -11.4614
LeftArm  -11.4082 7.21197 0.884605
LeftForeArm  12.1445 -0.214637 -4.12856
LeftHand  -0.244104 0.0205437 5.32207
RightShoulder  0.229813 -0.905345 0.488729
RightArm  -25.7154 -6.38969 3.77
RightForeArm  -2.51666 1.2054 0.983334
RightHand  -2.16039 6.55779 -21.081
LeftUpLeg  0.356753 4.75853 2.57571
LeftLeg  2.98564 10.9076 -3.44541
LeftFoot  -1.36329 -0.189126 2.39752
LeftToes  4.18335e-011 -7.14095e-012 4.81992e-012
175
root  -79.8944 41.7698 7.66443 -153.485 -88.1222 151.556
RightUpLeg  1.73437 -8.17314 -6.03384
RightLeg  4.82308 -3.39156 2.83105
RightFoot  -2.91547 -0.0782998 0.883789
RightToes  -1.16417e-010 0 -3.6325e-017
Spine  1.38918 0.598192 -3.80236
Spine1  3.06498 -0.376898 5.25905
HEad  16.8811 24.8923 2.79586
LeftShoulder1  1.43437 -3.96683 -12.0364
LeftArm  -10.0687 6.99078 1.1818
LeftForeArm  9.87018 0.667349 -4.76348
LeftHand  -0.244104 0.0205437 5.32207
RightShoulder  0.240277 -0.8654 0.79131
RightArm  -25.7781 -6.12722 3.59901
RightForeArm  -5.71353 0.889777 1.11241
RightHand  -1.66912 4.07814 -20.5438
LeftUpLeg  0.254041 4.77297 2.58973
LeftLeg  3.00864 10.9659 -3.45113
LeftFoot  -1.37052 -0.194953 2.47808
LeftToes  4.18335e-011 -7.14095e-012 4.81992e-012
176
root  -79.8954 41.7696 7.66183 -155.284 -88.0431 153.385
RightUpLeg  1.71814 -8.17944 -6.01817
RightLeg  4.76597 -3.29781 2.86996
RightFoot  -2.87453 -0.0758302 0.845463
RightToes  -1.16417e-010 0 -3.6325e-017
Spine  1.17522 0.519907 -4.21525
Spine1  3.66112 -0.609465 5.87509
HEad  34.3708 10.8756 39.3661
LeftShoulder1  1.445 -3.82511 -12.6081
LeftArm  -9.39063 7.44433 1.44135
LeftForeArm  8.02962 0.317802 -5.10243
LeftHand  -0.244104 0.0205437 5.32207
RightShoulder  0.233691 -0.925257 0.730486
RightArm  -25.6763 -5.91649 3.64448
RightForeArm  -8.43893 0.780623 1.31158
RightHand  -1.48788 2.92089 -20.8062
LeftUpLeg  0.237051 4.79964 2.62063
LeftLeg  3.02133 11.0398 -3.4511
LeftFoot  -1.40155 -0.194023 2.44942
LeftToes  4.18335e-011 -7.14095e-012 4.81992e-012
177
root  -79.8977 41.7697 7.65887 -156.926 -87.9182 155.081
RightUpLeg  1.6466 -8.18612 -6.0129
RightLeg  4.75536 -3.15301 2.89691
RightFoot  -2.84313 -0.0735658 0.810321
RightToes  -1.16417e-010 0 -3.6325e-017
Spine  0.819855 0.476137 -5.42674
Spine1  4.51556 -1.15975 8.03057
HEad  80.3626 -41.0687 124.439
LeftShoulder1  1.43338 -3.08775 -14.8868
LeftArm  -8.90647 7.46096 2.49601
LeftForeArm  5.9035 -0.569702 -5.47725
LeftHand  -0.244104 0.0205437 5.32207
RightShoulder  0.165428 -1.33332 -0.957529
RightArm  -26.3213 -5.42777 4.79821
RightForeArm  -8.6879 0.750407 1.21404
RightHand  -1.53996 3.07655 -21.1368
LeftUpLeg  0.226163 4.80535 2.63052
LeftLeg  2.98042 11.174 -3.45716
LeftFoot  -1.43184 -0.191582 2.3955
LeftToes  4.18335e-011 -7.14095e-012 4.81992e-012
